<svg xmlns="http://www.w3.org/2000/svg" viewBox="0 0 400 200">
  <defs>
    <linearGradient id="grad3" x1="0%" y1="0%" x2="100%" y2="100%">
      <stop offset="0%" style="stop-color:#4facfe"/>
      <stop offset="100%" style="stop-color:#00f2fe"/>
    </linearGradient>
  </defs>
  <rect width="400" height="200" fill="url(#grad3)"/>
  <rect x="50" y="80" width="80" height="100" fill="rgba(255,255,255,0.2)"/>
  <polygon points="90,40 130,80 50,80" fill="rgba(255,255,255,0.25)"/>
  <rect x="150" y="60" width="100" height="120" fill="rgba(255,255,255,0.2)"/>
  <polygon points="200,20 250,60 150,60" fill="rgba(255,255,255,0.25)"/>
  <rect x="260" y="100" width="90" height="80" fill="rgba(255,255,255,0.2)"/>
  <polygon points="305,60 350,100 260,100" fill="rgba(255,255,255,0.25)"/>
  <rect x="65" y="130" width="20" height="30" fill="rgba(255,255,255,0.3)"/>
  <rect x="95" y="130" width="20" height="30" fill="rgba(255,255,255,0.3)"/>
  <rect x="170" y="100" width="25" height="40" fill="rgba(255,255,255,0.3)"/>
  <rect x="205" y="100" width="25" height="40" fill="rgba(255,255,255,0.3)"/>
  <rect x="280" y="140" width="15" height="25" fill="rgba(255,255,255,0.3)"/>
  <rect x="310" y="140" width="15" height="25" fill="rgba(255,255,255,0.3)"/>
</svg>
