<svg xmlns="http://www.w3.org/2000/svg" viewBox="0 0 400 200">
  <defs>
    <linearGradient id="grad4" x1="0%" y1="0%" x2="100%" y2="100%">
      <stop offset="0%" style="stop-color:#43e97b"/>
      <stop offset="100%" style="stop-color:#38f9d7"/>
    </linearGradient>
  </defs>
  <rect width="400" height="200" fill="url(#grad4)"/>
  <rect x="20" y="20" width="110" height="160" rx="10" fill="rgba(255,255,255,0.15)"/>
  <rect x="30" y="30" width="90" height="60" rx="5" fill="rgba(255,255,255,0.2)"/>
  <circle cx="75" cy="60" r="15" fill="rgba(255,255,255,0.3)"/>
  <rect x="30" y="100" width="90" height="8" rx="4" fill="rgba(255,255,255,0.2)"/>
  <rect x="30" y="115" width="60" height="6" rx="3" fill="rgba(255,255,255,0.15)"/>
  <rect x="30" y="140" width="40" height="20" rx="5" fill="rgba(255,255,255,0.25)"/>
  <rect x="145" y="20" width="110" height="160" rx="10" fill="rgba(255,255,255,0.15)"/>
  <rect x="155" y="30" width="90" height="60" rx="5" fill="rgba(255,255,255,0.2)"/>
  <ellipse cx="200" cy="55" rx="20" ry="15" fill="rgba(255,255,255,0.3)"/>
  <rect x="155" y="100" width="90" height="8" rx="4" fill="rgba(255,255,255,0.2)"/>
  <rect x="155" y="115" width="70" height="6" rx="3" fill="rgba(255,255,255,0.15)"/>
  <rect x="155" y="140" width="40" height="20" rx="5" fill="rgba(255,255,255,0.25)"/>
  <rect x="270" y="20" width="110" height="160" rx="10" fill="rgba(255,255,255,0.15)"/>
  <rect x="280" y="30" width="90" height="60" rx="5" fill="rgba(255,255,255,0.2)"/>
  <rect x="300" y="45" width="50" height="30" rx="5" fill="rgba(255,255,255,0.3)"/>
  <rect x="280" y="100" width="90" height="8" rx="4" fill="rgba(255,255,255,0.2)"/>
  <rect x="280" y="115" width="50" height="6" rx="3" fill="rgba(255,255,255,0.15)"/>
  <rect x="280" y="140" width="40" height="20" rx="5" fill="rgba(255,255,255,0.25)"/>
</svg>
