<svg xmlns="http://www.w3.org/2000/svg" viewBox="0 0 400 200">
  <defs>
    <linearGradient id="grad3" x1="0%" y1="0%" x2="100%" y2="100%">
      <stop offset="0%" style="stop-color:#4facfe"/>
      <stop offset="100%" style="stop-color:#00f2fe"/>
    </linearGradient>
  </defs>
  <rect width="400" height="200" fill="url(#grad3)"/>
  <!-- Building envelope design -->
  <rect x="80" y="60" width="240" height="120" rx="5" fill="rgba(255,255,255,0.15)"/>
  <rect x="90" y="70" width="220" height="100" rx="3" fill="rgba(255,255,255,0.1)"/>
  <!-- Roof/envelope -->
  <polygon points="200,30 340,70 60,70" fill="rgba(255,255,255,0.2)"/>
  <!-- Windows grid -->
  <rect x="110" y="90" width="40" height="30" rx="2" fill="rgba(255,255,255,0.25)"/>
  <rect x="160" y="90" width="40" height="30" rx="2" fill="rgba(255,255,255,0.25)"/>
  <rect x="210" y="90" width="40" height="30" rx="2" fill="rgba(255,255,255,0.25)"/>
  <rect x="260" y="90" width="40" height="30" rx="2" fill="rgba(255,255,255,0.25)"/>
  <rect x="110" y="130" width="40" height="30" rx="2" fill="rgba(255,255,255,0.25)"/>
  <rect x="160" y="130" width="40" height="30" rx="2" fill="rgba(255,255,255,0.25)"/>
  <rect x="210" y="130" width="40" height="30" rx="2" fill="rgba(255,255,255,0.25)"/>
  <rect x="260" y="130" width="40" height="30" rx="2" fill="rgba(255,255,255,0.25)"/>
  <!-- MGB text -->
  <text x="200" y="55" text-anchor="middle" fill="white" font-size="16" font-weight="bold" font-family="Arial">MGB</text>
</svg>
