<svg xmlns="http://www.w3.org/2000/svg" viewBox="0 0 400 200">
  <defs>
    <linearGradient id="grad2" x1="0%" y1="0%" x2="100%" y2="100%">
      <stop offset="0%" style="stop-color:#f093fb"/>
      <stop offset="100%" style="stop-color:#f5576c"/>
    </linearGradient>
  </defs>
  <rect width="400" height="200" fill="url(#grad2)"/>
  <rect x="20" y="20" width="170" height="160" rx="10" fill="rgba(255,255,255,0.1)"/>
  <rect x="30" y="35" width="100" height="8" rx="4" fill="rgba(255,255,255,0.3)"/>
  <rect x="30" y="55" width="60" height="20" rx="5" fill="rgba(255,255,255,0.2)"/>
  <rect x="100" y="55" width="60" height="20" rx="5" fill="rgba(255,255,255,0.2)"/>
  <rect x="30" y="90" width="150" height="40" rx="5" fill="rgba(255,255,255,0.15)"/>
  <rect x="30" y="140" width="150" height="30" rx="5" fill="rgba(255,255,255,0.1)"/>
  <rect x="210" y="20" width="170" height="75" rx="10" fill="rgba(255,255,255,0.1)"/>
  <circle cx="295" cy="60" r="25" fill="rgba(255,255,255,0.2)"/>
  <text x="295" y="67" text-anchor="middle" fill="white" font-size="20" font-family="Arial">CRM</text>
  <rect x="210" y="105" width="170" height="75" rx="10" fill="rgba(255,255,255,0.1)"/>
  <rect x="220" y="120" width="80" height="6" rx="3" fill="rgba(255,255,255,0.3)"/>
  <rect x="220" y="135" width="100" height="6" rx="3" fill="rgba(255,255,255,0.2)"/>
  <rect x="220" y="150" width="60" height="6" rx="3" fill="rgba(255,255,255,0.2)"/>
</svg>
